PathFileType  4	(X/Y/Z) C:\Users\15086\Documents\GitHub\mocap-processing\BertecTesting2023-09-14\
DataRate	CameraRate	NumFrames	NumMarkers	Units	OrigDataRate	OrigDataStartFrame	OrigNumFrames
  200.0		  200.0		   22		     10		 mm	  200.0	      476	   1900
Frame#	Time	r_calc			r_toe			r_meta			r_ankle			r_mankle			l_calc			l_toe			l_meta			l_ankle			l_mankle			
		X1	Y1	Z1	X2	Y2	Z2	X3	Y3	Z3	X4	Y4	Z4	X5	Y5	Z5	X6	Y6	Z6	X7	Y7	Z7	X8	Y8	Z8	X9	Y9	Z9	X10	Y10	Z10	

476	2.37500	932.169	58.046	-348.898	1147.605	52.329	-305.756	1099.828	45.461	-263.177	1002.987	104.478	-287.981	1025.899	112.657	-372.965	875.668	741.054	-379.579	795.253	544.581	-427.083	800.066	607.457	-469.869	897.948	672.987	-444.225	901.135	633.712	-367.770
477	2.38000	902.147	60.170	-346.365	1117.462	51.962	-304.353	1069.685	45.384	-261.909	975.077	105.097	-285.088	996.247	113.687	-370.829	878.885	728.052	-379.491	813.189	526.363	-428.840	812.895	589.609	-469.254	905.717	662.084	-444.632	911.843	623.355	-368.029
478	2.38500	872.105	63.639	-344.015	1086.704	51.510	-304.346	1039.481	45.459	-260.872	946.276	105.880	-282.420	966.183	115.428	-368.515	880.801	712.814	-379.937	832.157	506.401	-429.083	826.253	569.399	-468.724	912.801	649.788	-445.014	922.022	611.515	-367.964
479	2.39000	842.493	68.109	-341.892	1056.285	51.294	-303.993	1009.273	45.547	-260.480	917.261	108.035	-281.072	937.560	118.179	-366.706	882.179	695.466	-380.606	852.531	485.432	-427.857	840.772	547.470	-468.344	919.737	635.903	-444.801	932.170	598.194	-368.089
480	2.39500	813.288	74.363	-340.498	1025.685	50.871	-303.900	979.177	45.885	-259.888	888.763	111.356	-278.663	909.331	121.906	-364.978	883.815	676.008	-381.870	874.478	463.826	-427.131	856.793	523.576	-468.528	927.421	618.637	-446.258	942.689	583.701	-368.113
481	2.40000	784.866	81.884	-339.001	995.260	50.622	-303.505	947.283	44.458	-258.765	861.112	115.465	-276.938	881.643	125.913	-363.465	886.283	654.051	-383.416	897.681	441.856	-426.651	874.777	498.816	-468.573	935.427	601.775	-448.362	953.901	567.918	-368.608
482	2.40500	757.245	90.673	-337.852	964.681	50.432	-303.946	917.250	44.712	-258.728	833.545	120.002	-275.699	854.369	131.049	-361.682	890.027	630.281	-384.858	922.196	420.013	-424.802	894.594	473.797	-468.485	945.603	581.539	-448.641	965.795	550.871	-368.461
483	2.41000	730.894	100.996	-336.231	934.816	50.076	-303.337	887.379	44.689	-258.535	807.640	126.566	-273.847	828.908	136.726	-359.316	895.721	604.833	-385.913	948.398	394.775	-420.320	916.254	448.597	-468.702	956.316	561.735	-449.470	978.549	533.089	-368.345
484	2.41500	705.797	112.372	-334.505	905.248	50.158	-302.891	858.107	45.274	-258.196	782.839	133.624	-271.619	803.905	143.274	-356.495	903.744	577.674	-387.355	973.794	376.791	-418.396	938.712	424.684	-469.734	969.173	539.870	-449.081	993.162	513.958	-368.579
485	2.42000	682.536	124.766	-332.483	876.210	50.029	-301.953	829.328	46.024	-257.443	759.533	141.808	-268.852	780.658	150.260	-352.963	914.585	549.313	-388.774	1006.345	356.889	-423.140	965.919	399.558	-469.005	983.990	517.455	-448.875	1005.971	496.447	-368.287
486	2.42500	661.628	138.109	-329.406	847.423	49.948	-300.543	801.121	47.073	-256.444	737.795	150.935	-264.975	759.812	157.821	-348.500	926.225	522.099	-388.109	1036.582	338.100	-424.093	993.222	375.800	-471.310	1000.439	494.902	-448.135	1022.283	477.264	-367.703
487	2.43000	643.186	152.854	-325.783	819.357	49.967	-300.014	773.665	48.635	-255.116	718.709	160.577	-260.411	742.173	166.174	-343.457	943.491	493.527	-387.035	1067.815	319.980	-424.390	1020.431	354.645	-469.534	1018.104	473.340	-447.919	1042.596	456.252	-367.011
488	2.43500	626.892	168.830	-320.992	792.495	51.064	-298.467	747.809	51.477	-253.117	702.147	169.776	-255.151	726.984	173.850	-338.287	962.236	467.117	-385.579	1099.604	302.385	-425.099	1049.567	333.675	-469.863	1037.254	451.883	-447.076	1065.386	434.621	-366.281
489	2.44000	611.783	185.896	-314.754	768.255	52.908	-296.561	723.082	56.764	-250.577	685.742	179.653	-249.881	711.230	182.815	-331.973	982.146	435.827	-384.920	1132.436	286.621	-426.079	1079.311	313.758	-469.974	1057.634	430.903	-446.570	1089.128	413.580	-365.584
490	2.44500	596.779	203.839	-307.274	744.787	56.843	-293.856	700.046	64.598	-247.779	669.815	191.083	-244.390	694.025	194.606	-328.916	1004.027	407.676	-383.153	1165.283	271.130	-426.887	1110.018	294.939	-469.998	1079.972	409.434	-443.924	1112.839	393.963	-364.727
491	2.45000	581.322	222.456	-298.778	721.010	63.438	-291.103	678.309	75.250	-243.612	654.855	204.393	-238.895	676.969	207.437	-323.766	1027.770	380.021	-380.273	1198.722	257.309	-427.546	1141.264	277.336	-469.790	1102.547	389.077	-442.376	1137.335	375.274	-362.946
492	2.45500	565.684	242.457	-290.179	697.646	72.793	-287.890	656.540	88.017	-239.331	640.073	219.463	-233.677	659.039	222.107	-318.856	1052.685	353.287	-377.376	1232.191	244.760	-427.597	1173.316	261.053	-469.101	1126.396	368.660	-439.699	1162.532	357.337	-360.946
493	2.46000	550.077	263.173	-282.085	673.695	85.134	-284.467	633.937	102.539	-234.250	624.833	235.845	-228.688	641.339	238.967	-314.144	1078.813	327.305	-374.670	1265.492	233.377	-426.890	1205.616	245.909	-468.090	1151.588	349.284	-437.678	1188.178	340.076	-358.879
494	2.46500	535.131	284.579	-275.342	650.625	101.886	-281.177	613.300	120.916	-231.632	609.803	253.210	-223.839	623.667	255.614	-310.681	1105.782	302.527	-371.606	1298.584	223.092	-425.686	1237.782	231.836	-466.577	1175.657	330.419	-434.695	1213.892	323.713	-356.597
495	2.47000	519.690	306.820	-268.822	627.389	120.160	-280.048	593.359	140.631	-227.654	593.790	273.152	-221.196	605.578	272.995	-305.850	1133.386	279.355	-369.539	1331.077	213.840	-423.834	1269.876	218.543	-464.638	1200.873	312.489	-432.268	1239.664	308.193	-354.412
496	2.47500	505.790	330.624	-262.673	605.231	139.223	-276.986	573.909	161.220	-223.354	579.444	293.469	-216.995	589.032	293.079	-301.708	1160.942	257.215	-367.116	1362.882	205.835	-421.404	1301.521	205.971	-462.052	1225.727	294.707	-430.115	1265.003	293.519	-351.619
497	2.48000	494.911	356.573	-256.690	583.804	159.985	-273.626	554.688	183.490	-219.362	566.911	314.907	-212.785	575.157	315.428	-297.727	1188.660	236.725	-364.670	1393.704	198.579	-418.498	1332.524	193.766	-459.023	1250.575	277.894	-428.656	1289.550	280.258	-350.625
